<svg width="1238" height="1357" xmlns="http://www.w3.org/2000/svg" xmlns:xlink="http://www.w3.org/1999/xlink" xml:space="preserve" overflow="hidden"><defs><clipPath id="clip0"><rect x="508" y="797" width="1238" height="1357"/></clipPath></defs><g clip-path="url(#clip0)" transform="translate(-508 -797)"><text fill="#000000" fill-opacity="1" font-family="Calibri,Calibri_MSFontService,sans-serif" font-style="normal" font-variant="normal" font-weight="400" font-stretch="normal" font-size="128" text-anchor="start" direction="ltr" writing-mode="lr-tb" unicode-bidi="normal" text-decoration="none" transform="matrix(1 0 0 1 871.275 971)">Decision node</text><text fill="#000000" fill-opacity="1" font-family="Calibri,Calibri_MSFontService,sans-serif" font-style="normal" font-variant="normal" font-weight="400" font-stretch="normal" font-size="128" text-anchor="start" direction="ltr" writing-mode="lr-tb" unicode-bidi="normal" text-decoration="none" transform="matrix(1 0 0 1 871.275 1320)">Chance node</text><text fill="#000000" fill-opacity="1" font-family="Calibri,Calibri_MSFontService,sans-serif" font-style="normal" font-variant="normal" font-weight="400" font-stretch="normal" font-size="128" text-anchor="start" direction="ltr" writing-mode="lr-tb" unicode-bidi="normal" text-decoration="none" transform="matrix(1 0 0 1 871.275 1669)">Terminal  node</text><text fill="#000000" fill-opacity="1" font-family="Calibri,Calibri_MSFontService,sans-serif" font-style="normal" font-variant="normal" font-weight="400" font-stretch="normal" font-size="128" text-anchor="start" direction="ltr" writing-mode="lr-tb" unicode-bidi="normal" text-decoration="none" transform="matrix(1 0 0 1 871.275 2038)">Branches</text><rect x="520" y="800" width="259" height="260" fill="#002060" fill-opacity="1"/><path d="M520 1281C520 1209.2 577.979 1151 649.5 1151 721.021 1151 779 1209.2 779 1281 779 1352.8 721.021 1411 649.5 1411 577.979 1411 520 1352.8 520 1281Z" fill="#00730A" fill-rule="evenodd" fill-opacity="1"/><path d="M779 1762 520 1632 779 1502Z" fill="#C00000" fill-rule="evenodd" fill-opacity="1"/><path d="M0 0 259.843 259.843" stroke="#000000" stroke-width="20.625" stroke-linecap="butt" stroke-linejoin="miter" stroke-miterlimit="8" stroke-opacity="1" fill="none" fill-rule="evenodd" transform="matrix(-1 0 0 1 780.342 1853.5)"/></g></svg>